<svg xmlns="http://www.w3.org/2000/svg" xmlns:xlink="http://www.w3.org/1999/xlink" width="1920" zoomAndPan="magnify" viewBox="0 0 1440 809.999993" height="1080" preserveAspectRatio="xMidYMid meet" version="1.0"><defs><g/></defs><g fill="#000000" fill-opacity="1"><g transform="translate(446.398592, 321.234558)"><g><path d="M 118.890625 -64.546875 C 118.984375 -63.890625 118.796875 -63.257812 118.328125 -62.65625 C 117.859375 -62.050781 117.253906 -61.703125 116.515625 -61.609375 C 110.828125 -60.953125 105.46875 -60.113281 100.4375 -59.09375 C 95.414062 -58.070312 90.625 -56.863281 86.0625 -55.46875 C 84.007812 -46.144531 81.910156 -36.753906 79.765625 -27.296875 C 77.628906 -17.847656 75.582031 -8.703125 73.625 0.140625 C 71.664062 8.984375 69.867188 17.15625 68.234375 24.65625 C 66.609375 32.15625 65.210938 38.601562 64.046875 44 C 62.890625 49.40625 62.078125 53.363281 61.609375 55.875 C 59.648438 64.726562 56.851562 71.832031 53.21875 77.1875 C 49.59375 82.539062 45.3125 85.820312 40.375 87.03125 C 39.070312 87.40625 37.722656 87.59375 36.328125 87.59375 C 29.804688 87.59375 23.796875 84.285156 18.296875 77.671875 C 15.316406 74.128906 12.875 69.539062 10.96875 63.90625 C 9.0625 58.28125 7.828125 51.972656 7.265625 44.984375 C 6.703125 37.992188 6.957031 30.65625 8.03125 22.96875 C 9.101562 15.289062 11.175781 7.585938 14.25 -0.140625 C 21.238281 -17.273438 32.367188 -31.429688 47.640625 -42.609375 C 57.421875 -49.691406 68.738281 -55.375 81.59375 -59.65625 C 83.351562 -67.570312 85.09375 -75.207031 86.8125 -82.5625 C 88.539062 -89.914062 90.148438 -96.671875 91.640625 -102.828125 C 93.222656 -109.523438 94.128906 -114.738281 94.359375 -118.46875 C 94.597656 -122.195312 94.484375 -124.828125 94.015625 -126.359375 C 93.554688 -127.898438 93.09375 -128.71875 92.625 -128.8125 C 91.507812 -129.175781 89.898438 -128.5 87.796875 -126.78125 C 85.703125 -125.0625 83.535156 -122.640625 81.296875 -119.515625 C 79.066406 -116.390625 77.207031 -112.828125 75.71875 -108.828125 C 74.96875 -106.867188 74.359375 -104.539062 73.890625 -101.84375 C 73.429688 -99.144531 73.570312 -96.535156 74.3125 -94.015625 C 75.0625 -91.503906 76.925781 -89.597656 79.90625 -88.296875 C 80.5625 -88.015625 81.023438 -87.523438 81.296875 -86.828125 C 81.578125 -86.128906 81.582031 -85.453125 81.3125 -84.796875 C 81.03125 -84.148438 80.539062 -83.6875 79.84375 -83.40625 C 79.144531 -83.125 78.421875 -83.125 77.671875 -83.40625 C 73.109375 -85.445312 70.195312 -88.890625 68.9375 -93.734375 C 67.6875 -98.578125 68.269531 -104.257812 70.6875 -110.78125 C 71.707031 -113.570312 73.125 -116.457031 74.9375 -119.4375 C 76.757812 -122.425781 78.765625 -125.128906 80.953125 -127.546875 C 83.140625 -129.972656 85.375 -131.8125 87.65625 -133.0625 C 89.945312 -134.320312 92.113281 -134.625 94.15625 -133.96875 C 100.675781 -132.019531 101.5625 -121.21875 96.8125 -101.5625 C 95.414062 -95.789062 93.925781 -89.503906 92.34375 -82.703125 C 90.757812 -75.898438 89.128906 -68.820312 87.453125 -61.46875 C 96.296875 -63.976562 105.796875 -65.796875 115.953125 -66.921875 C 116.609375 -67.015625 117.238281 -66.828125 117.84375 -66.359375 C 118.445312 -65.890625 118.796875 -65.285156 118.890625 -64.546875 Z M 56.296875 54.765625 C 56.859375 52.335938 57.695312 48.515625 58.8125 43.296875 C 59.925781 38.085938 61.273438 31.847656 62.859375 24.578125 C 64.441406 17.316406 66.164062 9.378906 68.03125 0.765625 C 69.894531 -7.847656 71.875 -16.765625 73.96875 -25.984375 C 76.0625 -35.203125 78.132812 -44.375 80.1875 -53.5 C 68.082031 -49.21875 58 -43.976562 49.9375 -37.78125 C 41.882812 -31.59375 35.410156 -25.050781 30.515625 -18.15625 C 25.628906 -11.269531 21.882812 -4.566406 19.28125 1.953125 C 17.039062 7.453125 15.316406 13.53125 14.109375 20.1875 C 12.898438 26.84375 12.34375 33.546875 12.4375 40.296875 C 12.53125 47.054688 13.367188 53.390625 14.953125 59.296875 C 16.535156 65.210938 19.003906 70.175781 22.359375 74.1875 C 24.960938 77.351562 27.726562 79.585938 30.65625 80.890625 C 33.59375 82.191406 36.410156 82.515625 39.109375 81.859375 C 43.023438 80.929688 46.445312 78.140625 49.375 73.484375 C 52.3125 68.828125 54.617188 62.585938 56.296875 54.765625 Z M 56.296875 54.765625 "/></g></g></g><g fill="#000000" fill-opacity="1"><g transform="translate(561.362616, 321.234558)"><g><path d="M 102.40625 -122.515625 C 106.78125 -118.421875 110.429688 -112.644531 113.359375 -105.1875 C 116.296875 -97.738281 118.253906 -88.960938 119.234375 -78.859375 C 120.210938 -68.753906 119.929688 -57.644531 118.390625 -45.53125 C 116.859375 -33.425781 113.765625 -20.625 109.109375 -7.125 C 104.453125 6.46875 99.328125 18.128906 93.734375 27.859375 C 88.148438 37.597656 82.351562 45.539062 76.34375 51.6875 C 70.34375 57.832031 64.359375 62.375 58.390625 65.3125 C 52.429688 68.25 46.84375 69.71875 41.625 69.71875 C 38.738281 69.71875 36.039062 69.34375 33.53125 68.59375 C 27.289062 66.632812 22.023438 62.628906 17.734375 56.578125 C 13.453125 50.523438 10.425781 42.796875 8.65625 33.390625 C 6.800781 23.046875 6.5 11.144531 7.75 -2.3125 C 9.007812 -15.769531 11.78125 -30.320312 16.0625 -45.96875 C 18.019531 -52.851562 20.367188 -59.8125 23.109375 -66.84375 C 25.859375 -73.875 29.023438 -80.460938 32.609375 -86.609375 C 36.203125 -92.765625 40.117188 -98.050781 44.359375 -102.46875 C 48.597656 -106.894531 53.09375 -109.898438 57.84375 -111.484375 C 59.519531 -112.046875 61.148438 -112.414062 62.734375 -112.59375 C 67.941406 -120.144531 73.570312 -125.128906 79.625 -127.546875 C 87.820312 -130.804688 95.414062 -129.128906 102.40625 -122.515625 Z M 104.078125 -8.796875 C 108.453125 -21.648438 111.382812 -33.875 112.875 -45.46875 C 114.363281 -57.0625 114.6875 -67.675781 113.84375 -77.3125 C 113.007812 -86.957031 111.265625 -95.316406 108.609375 -102.390625 C 105.960938 -109.472656 102.679688 -114.878906 98.765625 -118.609375 C 96.898438 -120.378906 94.5 -121.84375 91.5625 -123 C 88.632812 -124.164062 85.3125 -124.003906 81.59375 -122.515625 C 79.539062 -121.679688 77.460938 -120.398438 75.359375 -118.671875 C 73.265625 -116.953125 71.195312 -114.789062 69.15625 -112.1875 C 72.414062 -111.4375 75.582031 -109.851562 78.65625 -107.4375 C 79.207031 -106.96875 79.53125 -106.359375 79.625 -105.609375 C 79.71875 -104.867188 79.535156 -104.21875 79.078125 -103.65625 C 78.609375 -103.101562 78.023438 -102.78125 77.328125 -102.6875 C 76.628906 -102.59375 75.953125 -102.773438 75.296875 -103.234375 C 72.128906 -105.660156 68.960938 -106.96875 65.796875 -107.15625 C 61.328125 -100.164062 57.132812 -90.660156 53.21875 -78.640625 C 49.3125 -66.628906 45.984375 -51.847656 43.234375 -34.296875 C 40.484375 -16.742188 38.550781 3.953125 37.4375 27.796875 C 37.4375 28.546875 37.15625 29.175781 36.59375 29.6875 C 36.039062 30.195312 35.390625 30.453125 34.640625 30.453125 C 33.898438 30.359375 33.269531 30.03125 32.75 29.46875 C 32.238281 28.914062 32.03125 28.3125 32.125 27.65625 C 33.4375 -2.882812 36.421875 -29.5625 41.078125 -52.375 C 45.734375 -75.195312 51.644531 -93.128906 58.8125 -106.171875 C 54.15625 -104.398438 49.519531 -100.695312 44.90625 -95.0625 C 40.300781 -89.425781 35.945312 -82.273438 31.84375 -73.609375 C 27.75 -64.953125 24.210938 -55.269531 21.234375 -44.5625 C 16.671875 -28.082031 13.875 -13.460938 12.84375 -0.703125 C 11.820312 12.054688 12.148438 22.90625 13.828125 31.84375 C 15.503906 40.789062 18.203125 47.894531 21.921875 53.15625 C 25.648438 58.414062 30.03125 61.835938 35.0625 63.421875 C 40 65.003906 45.46875 64.722656 51.46875 62.578125 C 57.476562 60.441406 63.601562 56.390625 69.84375 50.421875 C 76.09375 44.460938 82.148438 36.570312 88.015625 26.75 C 93.878906 16.925781 99.234375 5.078125 104.078125 -8.796875 Z M 104.078125 -8.796875 "/></g></g></g><g fill="#000000" fill-opacity="1"><g transform="translate(695.743148, 321.234558)"><g><path d="M 139.984375 -28.640625 C 140.546875 -28.171875 140.894531 -27.5625 141.03125 -26.8125 C 141.164062 -26.070312 141.003906 -25.421875 140.546875 -24.859375 C 140.078125 -24.117188 139.378906 -23.75 138.453125 -23.75 C 137.984375 -23.75 137.609375 -23.84375 137.328125 -24.03125 C 136.398438 -24.21875 133.882812 -24.425781 129.78125 -24.65625 C 125.6875 -24.882812 120.703125 -25.09375 114.828125 -25.28125 C 112.972656 -17.09375 111.085938 -8.898438 109.171875 -0.703125 C 107.265625 7.492188 105.519531 15.410156 103.9375 23.046875 C 101.613281 33.941406 99.820312 42.8125 98.5625 49.65625 C 97.300781 56.507812 96.460938 61.796875 96.046875 65.515625 C 95.628906 69.242188 95.421875 71.945312 95.421875 73.625 C 95.785156 73.0625 96.203125 72.410156 96.671875 71.671875 C 97.046875 71.015625 97.601562 70.59375 98.34375 70.40625 C 99.09375 70.21875 99.75 70.3125 100.3125 70.6875 C 100.957031 71.0625 101.375 71.597656 101.5625 72.296875 C 101.75 72.992188 101.65625 73.671875 101.28125 74.328125 C 100.351562 76.003906 99.304688 77.5625 98.140625 79 C 96.972656 80.445312 95.691406 81.171875 94.296875 81.171875 C 93.828125 81.171875 93.363281 81.078125 92.90625 80.890625 C 92.0625 80.515625 91.382812 79.742188 90.875 78.578125 C 90.363281 77.421875 90.109375 75.488281 90.109375 72.78125 C 90.109375 70.082031 90.457031 66.3125 91.15625 61.46875 C 91.851562 56.625 92.945312 50.335938 94.4375 42.609375 C 95.925781 34.878906 97.90625 25.445312 100.375 14.3125 C 102.84375 3.1875 105.847656 -10.054688 109.390625 -25.421875 C 104.171875 -25.609375 98.628906 -25.769531 92.765625 -25.90625 C 86.898438 -26.050781 81.21875 -26.171875 75.71875 -26.265625 C 75.53125 -26.265625 75.203125 -26.3125 74.734375 -26.40625 C 68.867188 -15.039062 63.117188 -4.445312 57.484375 5.375 C 51.847656 15.207031 46.75 23.242188 42.1875 29.484375 C 39.300781 33.390625 36.578125 35.945312 34.015625 37.15625 C 31.453125 38.375 29.171875 38.84375 27.171875 38.5625 C 25.171875 38.28125 23.566406 37.765625 22.359375 37.015625 C 19.285156 35.242188 16.675781 32.398438 14.53125 28.484375 C 12.382812 24.578125 10.660156 19.96875 9.359375 14.65625 C 8.054688 9.351562 7.285156 3.75 7.046875 -2.15625 C 6.816406 -8.070312 7.144531 -13.914062 8.03125 -19.6875 C 8.914062 -25.46875 10.382812 -30.734375 12.4375 -35.484375 C 16.625 -44.984375 22.742188 -51.363281 30.796875 -54.625 C 38.859375 -57.882812 48.335938 -57.835938 59.234375 -54.484375 C 59.890625 -54.203125 60.398438 -53.734375 60.765625 -53.078125 C 61.140625 -52.429688 61.1875 -51.734375 60.90625 -50.984375 C 60.71875 -50.335938 60.296875 -49.847656 59.640625 -49.515625 C 58.992188 -49.191406 58.300781 -49.125 57.5625 -49.3125 C 54.300781 -50.34375 50.804688 -51.039062 47.078125 -51.40625 C 43.347656 -51.78125 39.644531 -51.523438 35.96875 -50.640625 C 32.289062 -49.753906 28.84375 -47.9375 25.625 -45.1875 C 22.414062 -42.445312 19.648438 -38.515625 17.328125 -33.390625 C 15.179688 -28.546875 13.734375 -23.375 12.984375 -17.875 C 12.242188 -12.382812 12.0625 -6.9375 12.4375 -1.53125 C 12.8125 3.863281 13.578125 8.910156 14.734375 13.609375 C 15.898438 18.316406 17.367188 22.320312 19.140625 25.625 C 20.910156 28.9375 22.863281 31.195312 25 32.40625 C 28.914062 34.644531 33.203125 32.597656 37.859375 26.265625 C 42.234375 20.398438 47.078125 12.832031 52.390625 3.5625 C 57.703125 -5.707031 63.195312 -15.742188 68.875 -26.546875 C 55.832031 -26.828125 45.445312 -27.101562 37.71875 -27.375 C 29.988281 -27.65625 25.332031 -27.9375 23.75 -28.21875 C 23 -28.40625 22.4375 -28.800781 22.0625 -29.40625 C 21.695312 -30.007812 21.5625 -30.6875 21.65625 -31.4375 C 21.84375 -32.175781 22.238281 -32.753906 22.84375 -33.171875 C 23.445312 -33.597656 24.117188 -33.71875 24.859375 -33.53125 C 25.609375 -33.34375 27.398438 -33.175781 30.234375 -33.03125 C 33.078125 -32.894531 36.664062 -32.753906 41 -32.609375 C 45.332031 -32.472656 50.128906 -32.332031 55.390625 -32.1875 C 60.648438 -32.050781 66.03125 -31.941406 71.53125 -31.859375 C 74.695312 -37.816406 77.835938 -43.867188 80.953125 -50.015625 C 84.078125 -56.160156 87.175781 -62.210938 90.25 -68.171875 C 97.695312 -82.984375 103.9375 -95.207031 108.96875 -104.84375 C 114 -114.488281 118.144531 -121.960938 121.40625 -127.265625 C 124.664062 -132.578125 127.34375 -136.1875 129.4375 -138.09375 C 131.53125 -140 133.367188 -140.675781 134.953125 -140.125 C 136.628906 -139.46875 137.609375 -138.09375 137.890625 -136 C 138.171875 -133.90625 138.171875 -131.320312 137.890625 -128.25 C 137.328125 -122.195312 135.695312 -113.160156 133 -101.140625 C 132.15625 -97.234375 130.960938 -92.132812 129.421875 -85.84375 C 127.890625 -79.5625 126.238281 -72.648438 124.46875 -65.109375 C 123.164062 -59.796875 121.816406 -54.226562 120.421875 -48.40625 C 119.023438 -42.582031 117.582031 -36.644531 116.09375 -30.59375 C 122.425781 -30.40625 127.222656 -30.191406 130.484375 -29.953125 C 133.742188 -29.722656 136.046875 -29.515625 137.390625 -29.328125 C 138.742188 -29.148438 139.609375 -28.921875 139.984375 -28.640625 Z M 77.53125 -31.71875 C 84.519531 -31.53125 90.738281 -31.363281 96.1875 -31.21875 C 101.632812 -31.082031 106.453125 -30.921875 110.640625 -30.734375 C 113.253906 -41.628906 116.144531 -53.503906 119.3125 -66.359375 C 121.070312 -73.898438 122.695312 -80.789062 124.1875 -87.03125 C 125.6875 -93.269531 126.898438 -98.394531 127.828125 -102.40625 C 129.316406 -109.382812 130.429688 -115.015625 131.171875 -119.296875 C 131.921875 -123.585938 132.390625 -126.875 132.578125 -129.15625 C 132.765625 -131.4375 132.8125 -133.039062 132.71875 -133.96875 C 131.132812 -132.382812 128.941406 -129.285156 126.140625 -124.671875 C 123.347656 -120.066406 120.207031 -114.503906 116.71875 -107.984375 C 113.226562 -101.472656 109.617188 -94.535156 105.890625 -87.171875 C 102.171875 -79.816406 98.539062 -72.691406 95 -65.796875 C 92.207031 -60.210938 89.34375 -54.53125 86.40625 -48.75 C 83.46875 -42.976562 80.507812 -37.300781 77.53125 -31.71875 Z M 155.90625 -162.1875 C 156.375 -161.539062 156.5625 -160.867188 156.46875 -160.171875 C 156.375 -159.472656 156.046875 -158.84375 155.484375 -158.28125 C 152.316406 -155.675781 149.613281 -154.023438 147.375 -153.328125 C 145.144531 -152.628906 143.164062 -152.601562 141.4375 -153.25 C 139.71875 -153.90625 137.929688 -154.882812 136.078125 -156.1875 C 135.515625 -156.5625 134.953125 -156.929688 134.390625 -157.296875 C 133.835938 -157.671875 133.234375 -158.046875 132.578125 -158.421875 C 131.554688 -158.984375 130.53125 -159.378906 129.5 -159.609375 C 128.476562 -159.835938 127.148438 -159.460938 125.515625 -158.484375 C 123.890625 -157.515625 121.773438 -155.539062 119.171875 -152.5625 C 118.609375 -151.90625 117.910156 -151.578125 117.078125 -151.578125 C 116.421875 -151.578125 115.859375 -151.8125 115.390625 -152.28125 C 114.835938 -152.832031 114.535156 -153.476562 114.484375 -154.21875 C 114.441406 -154.96875 114.648438 -155.625 115.109375 -156.1875 C 119.117188 -160.65625 122.613281 -163.398438 125.59375 -164.421875 C 128.570312 -165.453125 131.785156 -165.035156 135.234375 -163.171875 C 135.972656 -162.703125 136.671875 -162.257812 137.328125 -161.84375 C 137.984375 -161.425781 138.585938 -160.984375 139.140625 -160.515625 C 140.535156 -159.585938 141.769531 -158.910156 142.84375 -158.484375 C 143.914062 -158.066406 145.125 -158.140625 146.46875 -158.703125 C 147.820312 -159.265625 149.710938 -160.519531 152.140625 -162.46875 C 152.691406 -162.9375 153.335938 -163.144531 154.078125 -163.09375 C 154.828125 -163.050781 155.4375 -162.75 155.90625 -162.1875 Z M 155.90625 -162.1875 "/></g></g></g><g fill="#000000" fill-opacity="1"><g transform="translate(865.18507, 321.234558)"><g><path d="M 102.40625 -122.515625 C 106.78125 -118.421875 110.429688 -112.644531 113.359375 -105.1875 C 116.296875 -97.738281 118.253906 -88.960938 119.234375 -78.859375 C 120.210938 -68.753906 119.929688 -57.644531 118.390625 -45.53125 C 116.859375 -33.425781 113.765625 -20.625 109.109375 -7.125 C 104.453125 6.46875 99.328125 18.128906 93.734375 27.859375 C 88.148438 37.597656 82.351562 45.539062 76.34375 51.6875 C 70.34375 57.832031 64.359375 62.375 58.390625 65.3125 C 52.429688 68.25 46.84375 69.71875 41.625 69.71875 C 38.738281 69.71875 36.039062 69.34375 33.53125 68.59375 C 27.289062 66.632812 22.023438 62.628906 17.734375 56.578125 C 13.453125 50.523438 10.425781 42.796875 8.65625 33.390625 C 6.800781 23.046875 6.5 11.144531 7.75 -2.3125 C 9.007812 -15.769531 11.78125 -30.320312 16.0625 -45.96875 C 18.019531 -52.851562 20.367188 -59.8125 23.109375 -66.84375 C 25.859375 -73.875 29.023438 -80.460938 32.609375 -86.609375 C 36.203125 -92.765625 40.117188 -98.050781 44.359375 -102.46875 C 48.597656 -106.894531 53.09375 -109.898438 57.84375 -111.484375 C 59.519531 -112.046875 61.148438 -112.414062 62.734375 -112.59375 C 67.941406 -120.144531 73.570312 -125.128906 79.625 -127.546875 C 87.820312 -130.804688 95.414062 -129.128906 102.40625 -122.515625 Z M 104.078125 -8.796875 C 108.453125 -21.648438 111.382812 -33.875 112.875 -45.46875 C 114.363281 -57.0625 114.6875 -67.675781 113.84375 -77.3125 C 113.007812 -86.957031 111.265625 -95.316406 108.609375 -102.390625 C 105.960938 -109.472656 102.679688 -114.878906 98.765625 -118.609375 C 96.898438 -120.378906 94.5 -121.84375 91.5625 -123 C 88.632812 -124.164062 85.3125 -124.003906 81.59375 -122.515625 C 79.539062 -121.679688 77.460938 -120.398438 75.359375 -118.671875 C 73.265625 -116.953125 71.195312 -114.789062 69.15625 -112.1875 C 72.414062 -111.4375 75.582031 -109.851562 78.65625 -107.4375 C 79.207031 -106.96875 79.53125 -106.359375 79.625 -105.609375 C 79.71875 -104.867188 79.535156 -104.21875 79.078125 -103.65625 C 78.609375 -103.101562 78.023438 -102.78125 77.328125 -102.6875 C 76.628906 -102.59375 75.953125 -102.773438 75.296875 -103.234375 C 72.128906 -105.660156 68.960938 -106.96875 65.796875 -107.15625 C 61.328125 -100.164062 57.132812 -90.660156 53.21875 -78.640625 C 49.3125 -66.628906 45.984375 -51.847656 43.234375 -34.296875 C 40.484375 -16.742188 38.550781 3.953125 37.4375 27.796875 C 37.4375 28.546875 37.15625 29.175781 36.59375 29.6875 C 36.039062 30.195312 35.390625 30.453125 34.640625 30.453125 C 33.898438 30.359375 33.269531 30.03125 32.75 29.46875 C 32.238281 28.914062 32.03125 28.3125 32.125 27.65625 C 33.4375 -2.882812 36.421875 -29.5625 41.078125 -52.375 C 45.734375 -75.195312 51.644531 -93.128906 58.8125 -106.171875 C 54.15625 -104.398438 49.519531 -100.695312 44.90625 -95.0625 C 40.300781 -89.425781 35.945312 -82.273438 31.84375 -73.609375 C 27.75 -64.953125 24.210938 -55.269531 21.234375 -44.5625 C 16.671875 -28.082031 13.875 -13.460938 12.84375 -0.703125 C 11.820312 12.054688 12.148438 22.90625 13.828125 31.84375 C 15.503906 40.789062 18.203125 47.894531 21.921875 53.15625 C 25.648438 58.414062 30.03125 61.835938 35.0625 63.421875 C 40 65.003906 45.46875 64.722656 51.46875 62.578125 C 57.476562 60.441406 63.601562 56.390625 69.84375 50.421875 C 76.09375 44.460938 82.148438 36.570312 88.015625 26.75 C 93.878906 16.925781 99.234375 5.078125 104.078125 -8.796875 Z M 104.078125 -8.796875 "/></g></g></g><g fill="#000000" fill-opacity="1"><g transform="translate(156.109393, 471.836475)"><g><path d="M 124.46875 -34.78125 C 124.84375 -34.132812 124.890625 -33.460938 124.609375 -32.765625 C 124.335938 -32.066406 123.875 -31.578125 123.21875 -31.296875 C 120.425781 -29.992188 116.703125 -28.898438 112.046875 -28.015625 C 107.390625 -27.128906 102.03125 -26.265625 95.96875 -25.421875 C 94.570312 -19.085938 93.128906 -12.285156 91.640625 -5.015625 C 90.148438 2.242188 88.726562 9.570312 87.375 16.96875 C 86.03125 24.375 84.773438 31.5 83.609375 38.34375 C 82.441406 45.1875 81.460938 51.445312 80.671875 57.125 C 79.878906 62.8125 79.253906 67.566406 78.796875 71.390625 C 79.535156 71.015625 80.28125 70.96875 81.03125 71.25 C 81.675781 71.53125 82.160156 71.992188 82.484375 72.640625 C 82.816406 73.296875 82.890625 73.992188 82.703125 74.734375 C 81.679688 77.535156 80.726562 79.773438 79.84375 81.453125 C 78.957031 83.128906 77.863281 83.96875 76.5625 83.96875 C 76.28125 83.96875 75.953125 83.921875 75.578125 83.828125 C 74.179688 83.359375 73.363281 82.097656 73.125 80.046875 C 72.894531 77.992188 73.109375 74.035156 73.765625 68.171875 C 74.597656 60.816406 76.039062 50.945312 78.09375 38.5625 C 79.488281 30.644531 80.976562 22.445312 82.5625 13.96875 C 84.144531 5.488281 85.726562 -2.566406 87.3125 -10.203125 C 79.394531 4.234375 71.476562 16.316406 63.5625 26.046875 C 55.644531 35.785156 48.097656 42.769531 40.921875 47 C 33.753906 51.238281 27.285156 52.289062 21.515625 50.15625 C 16.203125 48.195312 12.332031 43.75 9.90625 36.8125 C 7.488281 29.875 6.582031 20.910156 7.1875 9.921875 C 7.800781 -1.066406 10.015625 -13.546875 13.828125 -27.515625 C 15.410156 -33.484375 17.578125 -40.03125 20.328125 -47.15625 C 23.078125 -54.28125 26.195312 -61.585938 29.6875 -69.078125 C 33.175781 -76.578125 36.96875 -83.957031 41.0625 -91.21875 C 45.164062 -98.488281 49.382812 -105.265625 53.71875 -111.546875 C 58.050781 -117.835938 62.359375 -123.265625 66.640625 -127.828125 C 70.921875 -132.390625 75.179688 -135.414062 79.421875 -136.90625 C 83.660156 -138.394531 87.410156 -138.253906 90.671875 -136.484375 C 92.253906 -135.648438 93.835938 -134.046875 95.421875 -131.671875 C 97.003906 -129.296875 98.191406 -125.78125 98.984375 -121.125 C 99.773438 -116.46875 99.796875 -110.273438 99.046875 -102.546875 C 98.304688 -94.816406 96.351562 -85.128906 93.1875 -73.484375 C 93 -72.734375 92.578125 -72.171875 91.921875 -71.796875 C 91.273438 -71.429688 90.625 -71.34375 89.96875 -71.53125 C 89.21875 -71.71875 88.65625 -72.132812 88.28125 -72.78125 C 87.914062 -73.4375 87.828125 -74.132812 88.015625 -74.875 C 91.273438 -86.988281 93.207031 -97.050781 93.8125 -105.0625 C 94.414062 -113.070312 94.132812 -119.238281 92.96875 -123.5625 C 91.800781 -127.894531 90.148438 -130.617188 88.015625 -131.734375 C 85.960938 -132.953125 83.375 -132.859375 80.25 -131.453125 C 77.132812 -130.054688 73.898438 -127.640625 70.546875 -124.203125 C 66.359375 -119.722656 62.144531 -114.410156 57.90625 -108.265625 C 53.664062 -102.117188 49.566406 -95.503906 45.609375 -88.421875 C 41.648438 -81.347656 37.945312 -74.128906 34.5 -66.765625 C 31.0625 -59.410156 28.015625 -52.265625 25.359375 -45.328125 C 22.703125 -38.390625 20.582031 -31.988281 19 -26.125 C 13.414062 -5.539062 11.320312 11.316406 12.71875 24.453125 C 13.269531 30.035156 14.476562 34.617188 16.34375 38.203125 C 18.207031 41.796875 20.582031 44.101562 23.46875 45.125 C 26.914062 46.425781 31.082031 45.910156 35.96875 43.578125 C 40.863281 41.253906 46.101562 37.253906 51.6875 31.578125 C 57.738281 25.429688 63.882812 17.582031 70.125 8.03125 C 76.363281 -1.507812 82.5625 -12.382812 88.71875 -24.59375 C 85.914062 -24.3125 83 -24.003906 79.96875 -23.671875 C 76.945312 -23.347656 73.898438 -23.046875 70.828125 -22.765625 C 65.796875 -22.210938 60.695312 -21.65625 55.53125 -21.09375 C 50.363281 -20.53125 45.3125 -19.925781 40.375 -19.28125 C 40.28125 -19.28125 40.1875 -19.28125 40.09375 -19.28125 C 38.507812 -19.28125 37.625 -20.070312 37.4375 -21.65625 C 37.34375 -22.394531 37.503906 -23.066406 37.921875 -23.671875 C 38.347656 -24.285156 38.929688 -24.640625 39.671875 -24.734375 C 44.609375 -25.378906 49.660156 -25.957031 54.828125 -26.46875 C 60.003906 -26.976562 65.148438 -27.515625 70.265625 -28.078125 C 73.898438 -28.453125 77.507812 -28.820312 81.09375 -29.1875 C 84.675781 -29.5625 88.144531 -29.9375 91.5 -30.3125 C 91.59375 -30.5 91.660156 -30.660156 91.703125 -30.796875 C 91.753906 -30.941406 91.828125 -31.109375 91.921875 -31.296875 C 92.578125 -32.785156 93.695312 -33.25 95.28125 -32.6875 C 96.019531 -32.40625 96.578125 -31.847656 96.953125 -31.015625 C 102.265625 -31.753906 107.015625 -32.519531 111.203125 -33.3125 C 115.390625 -34.101562 118.648438 -35.0625 120.984375 -36.1875 C 121.628906 -36.46875 122.300781 -36.46875 123 -36.1875 C 123.707031 -35.90625 124.195312 -35.4375 124.46875 -34.78125 Z M 124.46875 -34.78125 "/></g></g></g><g fill="#000000" fill-opacity="1"><g transform="translate(291.60744, 471.836475)"><g><path d="M 123.5 -134.390625 C 124.707031 -134.015625 125.332031 -133.242188 125.375 -132.078125 C 125.425781 -130.921875 125.359375 -129.738281 125.171875 -128.53125 C 124.796875 -126.664062 124.238281 -123.960938 123.5 -120.421875 C 122.75 -116.972656 121.835938 -112.875 120.765625 -108.125 C 119.703125 -103.375 118.515625 -98.160156 117.203125 -92.484375 C 115.253906 -84.003906 113.09375 -74.59375 110.71875 -64.25 C 108.34375 -53.914062 105.96875 -43.207031 103.59375 -32.125 C 101.21875 -21.039062 98.976562 -10.125 96.875 0.625 C 94.78125 11.382812 92.988281 21.46875 91.5 30.875 C 90.007812 40.28125 88.988281 48.429688 88.4375 55.328125 C 87.96875 61.753906 88.242188 66.476562 89.265625 69.5 C 90.296875 72.53125 91.132812 74.140625 91.78125 74.328125 C 92.0625 74.421875 92.570312 74.160156 93.3125 73.546875 C 94.0625 72.941406 94.972656 71.753906 96.046875 69.984375 C 97.117188 68.222656 98.304688 65.523438 99.609375 61.890625 C 99.890625 61.140625 100.351562 60.601562 101 60.28125 C 101.65625 59.957031 102.351562 59.9375 103.09375 60.21875 C 103.75 60.394531 104.238281 60.832031 104.5625 61.53125 C 104.894531 62.238281 104.921875 62.914062 104.640625 63.5625 C 100.910156 74.363281 96.71875 79.765625 92.0625 79.765625 C 91.59375 79.765625 91.128906 79.71875 90.671875 79.625 C 87.785156 78.976562 85.664062 76.441406 84.3125 72.015625 C 82.957031 67.585938 82.5625 61.882812 83.125 54.90625 C 83.59375 48.757812 84.429688 41.65625 85.640625 33.59375 C 86.847656 25.539062 88.3125 16.90625 90.03125 7.6875 C 91.757812 -1.53125 93.644531 -11.03125 95.6875 -20.8125 C 97.738281 -30.59375 99.835938 -40.300781 101.984375 -49.9375 C 104.128906 -59.582031 106.222656 -68.828125 108.265625 -77.671875 C 102.867188 -61.835938 97.351562 -47.210938 91.71875 -33.796875 C 86.082031 -20.390625 80.375 -8.378906 74.59375 2.234375 C 66.957031 16.390625 59.507812 27.566406 52.25 35.765625 C 44.988281 43.960938 38.191406 48.851562 31.859375 50.4375 C 25.890625 51.832031 20.859375 50.34375 16.765625 45.96875 C 12.578125 41.488281 9.734375 34.5 8.234375 25 C 6.742188 15.5 6.535156 3.929688 7.609375 -9.703125 C 8.679688 -23.347656 11.007812 -38.625 14.59375 -55.53125 C 18.1875 -72.4375 23.007812 -90.484375 29.0625 -109.671875 C 29.25 -110.410156 29.664062 -110.941406 30.3125 -111.265625 C 30.96875 -111.597656 31.664062 -111.671875 32.40625 -111.484375 C 33.15625 -111.203125 33.691406 -110.734375 34.015625 -110.078125 C 34.335938 -109.429688 34.410156 -108.78125 34.234375 -108.125 C 25.285156 -79.625 19.179688 -54.96875 15.921875 -34.15625 C 12.660156 -13.34375 11.585938 3.488281 12.703125 16.34375 C 13.828125 29.195312 16.484375 37.8125 20.671875 42.1875 C 23.378906 45.070312 26.6875 46.050781 30.59375 45.125 C 35.8125 43.820312 41.816406 39.328125 48.609375 31.640625 C 55.410156 23.960938 62.695312 12.929688 70.46875 -1.453125 C 78.25 -15.847656 86.238281 -33.707031 94.4375 -55.03125 C 102.632812 -76.363281 110.738281 -101.234375 118.75 -129.640625 C 118.75 -129.640625 118.75 -129.6875 118.75 -129.78125 C 119.300781 -131.175781 119.878906 -132.410156 120.484375 -133.484375 C 121.097656 -134.554688 122.101562 -134.859375 123.5 -134.390625 Z M 123.5 -134.390625 "/></g></g></g><g fill="#000000" fill-opacity="1"><g transform="translate(419.981433, 471.836475)"><g><path d="M 72.09375 -138.453125 C 74.507812 -136.867188 75.859375 -133.882812 76.140625 -129.5 C 76.421875 -125.125 75.675781 -119.164062 73.90625 -111.625 C 72.875 -107.519531 71.585938 -102.140625 70.046875 -95.484375 C 68.515625 -88.828125 66.769531 -81.257812 64.8125 -72.78125 C 62.863281 -64.3125 60.816406 -55.300781 58.671875 -45.75 C 56.535156 -36.207031 54.367188 -26.5 52.171875 -16.625 C 49.984375 -6.75 47.84375 2.910156 45.75 12.359375 C 43.65625 21.816406 41.742188 30.710938 40.015625 39.046875 C 38.296875 47.378906 36.804688 54.78125 35.546875 61.25 C 34.296875 67.726562 33.390625 72.832031 32.828125 76.5625 C 32.828125 76.65625 32.828125 76.703125 32.828125 76.703125 C 33.578125 76.878906 34.085938 77.316406 34.359375 78.015625 C 34.640625 78.722656 34.6875 79.398438 34.5 80.046875 C 33.851562 81.628906 33.203125 83.070312 32.546875 84.375 C 31.898438 85.6875 31.015625 86.34375 29.890625 86.34375 C 29.523438 86.34375 29.203125 86.296875 28.921875 86.203125 C 27.523438 85.734375 26.800781 84.707031 26.75 83.125 C 26.707031 81.539062 26.960938 78.976562 27.515625 75.4375 C 28.265625 70.875 29.476562 64.265625 31.15625 55.609375 C 34.132812 40.609375 38.507812 20.113281 44.28125 -5.875 C 46.238281 -14.90625 48.238281 -23.984375 50.28125 -33.109375 C 52.332031 -42.234375 54.335938 -51.007812 56.296875 -59.4375 C 58.253906 -67.875 60.046875 -75.65625 61.671875 -82.78125 C 63.304688 -89.90625 64.726562 -96.070312 65.9375 -101.28125 C 67.144531 -106.5 68.03125 -110.363281 68.59375 -112.875 C 70.082031 -118.75 70.847656 -123.175781 70.890625 -126.15625 C 70.941406 -129.132812 70.710938 -131.132812 70.203125 -132.15625 C 69.691406 -133.1875 69.34375 -133.789062 69.15625 -133.96875 C 68.59375 -134.34375 67.492188 -134.273438 65.859375 -133.765625 C 64.234375 -133.253906 62.117188 -131.972656 59.515625 -129.921875 C 56.160156 -127.316406 52.503906 -123.773438 48.546875 -119.296875 C 44.585938 -114.828125 40.648438 -109.773438 36.734375 -104.140625 C 32.828125 -98.515625 29.195312 -92.601562 25.84375 -86.40625 C 22.488281 -80.207031 19.644531 -74.035156 17.3125 -67.890625 C 14.988281 -61.742188 13.453125 -55.945312 12.703125 -50.5 C 11.960938 -45.050781 12.242188 -40.234375 13.546875 -36.046875 C 16.253906 -28.035156 23.472656 -23.9375 35.203125 -23.75 C 35.953125 -23.75 36.582031 -23.492188 37.09375 -22.984375 C 37.601562 -22.472656 37.859375 -21.84375 37.859375 -21.09375 C 37.859375 -20.351562 37.601562 -19.722656 37.09375 -19.203125 C 36.582031 -18.691406 35.953125 -18.4375 35.203125 -18.4375 C 31.941406 -18.4375 28.519531 -18.878906 24.9375 -19.765625 C 21.351562 -20.648438 18.09375 -22.234375 15.15625 -24.515625 C 12.21875 -26.796875 10.003906 -30.078125 8.515625 -34.359375 C 7.117188 -38.554688 6.628906 -43.097656 7.046875 -47.984375 C 7.472656 -52.878906 8.453125 -57.816406 9.984375 -62.796875 C 11.523438 -67.773438 13.269531 -72.5 15.21875 -76.96875 C 17.175781 -81.445312 19.039062 -85.316406 20.8125 -88.578125 C 24.164062 -94.722656 27.867188 -100.75 31.921875 -106.65625 C 35.972656 -112.570312 40.09375 -117.925781 44.28125 -122.71875 C 48.476562 -127.519531 52.4375 -131.363281 56.15625 -134.25 C 62.957031 -139.46875 68.269531 -140.867188 72.09375 -138.453125 Z M 72.09375 -138.453125 "/></g></g></g><g fill="#000000" fill-opacity="1"><g transform="translate(497.649065, 471.836475)"><g><path d="M 110.359375 21.796875 C 111.109375 21.796875 111.738281 22.050781 112.25 22.5625 C 112.757812 23.070312 113.015625 23.703125 113.015625 24.453125 C 113.015625 25.191406 112.734375 25.816406 112.171875 26.328125 C 111.617188 26.847656 110.96875 27.109375 110.21875 27.109375 C 105.46875 27.015625 100.085938 28.082031 94.078125 30.3125 C 88.078125 32.550781 81.816406 35.390625 75.296875 38.828125 C 68.773438 42.273438 62.441406 45.722656 56.296875 49.171875 C 48.097656 53.828125 40.691406 57.832031 34.078125 61.1875 C 27.472656 64.539062 21.890625 66.21875 17.328125 66.21875 C 14.804688 66.21875 12.707031 65.613281 11.03125 64.40625 C 6.75 61.144531 5.863281 54.019531 8.375 43.03125 C 9.957031 36.320312 11.84375 28.566406 14.03125 19.765625 C 16.226562 10.960938 18.628906 1.601562 21.234375 -8.3125 C 23.835938 -18.226562 26.515625 -28.285156 29.265625 -38.484375 C 32.015625 -48.679688 34.738281 -58.484375 37.4375 -67.890625 C 41.070312 -80.460938 44.21875 -91.054688 46.875 -99.671875 C 49.53125 -108.285156 51.8125 -115.335938 53.71875 -120.828125 C 55.625 -126.328125 57.226562 -130.566406 58.53125 -133.546875 C 59.832031 -136.535156 60.945312 -138.65625 61.875 -139.90625 C 62.8125 -141.164062 63.582031 -141.890625 64.1875 -142.078125 C 64.800781 -142.265625 65.382812 -142.3125 65.9375 -142.21875 C 67.707031 -141.9375 68.734375 -140.609375 69.015625 -138.234375 C 69.296875 -135.859375 69.25 -132.15625 68.875 -127.125 C 68.78125 -126.382812 68.453125 -125.78125 67.890625 -125.3125 C 67.335938 -124.84375 66.6875 -124.65625 65.9375 -124.75 C 65.195312 -124.75 64.566406 -125.03125 64.046875 -125.59375 C 63.535156 -126.15625 63.328125 -126.804688 63.421875 -127.546875 C 63.609375 -129.222656 63.75 -130.757812 63.84375 -132.15625 C 62.726562 -129.644531 61.210938 -125.734375 59.296875 -120.421875 C 57.390625 -115.117188 54.992188 -107.785156 52.109375 -98.421875 C 49.222656 -89.054688 45.679688 -77.019531 41.484375 -62.3125 C 38.878906 -53.175781 36.25 -43.695312 33.59375 -33.875 C 30.9375 -24.050781 28.351562 -14.363281 25.84375 -4.8125 C 23.332031 4.726562 21.023438 13.710938 18.921875 22.140625 C 16.828125 30.566406 15.082031 37.945312 13.6875 44.28125 C 12.851562 48.007812 12.410156 50.96875 12.359375 53.15625 C 12.316406 55.34375 12.503906 56.945312 12.921875 57.96875 C 13.335938 59 13.78125 59.703125 14.25 60.078125 C 15.550781 61.003906 17.578125 61.164062 20.328125 60.5625 C 23.078125 59.957031 26.265625 58.816406 29.890625 57.140625 C 33.523438 55.460938 37.390625 53.503906 41.484375 51.265625 C 45.585938 49.035156 49.640625 46.800781 53.640625 44.5625 C 59.972656 40.925781 66.515625 37.335938 73.265625 33.796875 C 80.023438 30.265625 86.570312 27.332031 92.90625 25 C 99.238281 22.675781 105.054688 21.609375 110.359375 21.796875 Z M 110.359375 21.796875 "/></g></g></g><g fill="#000000" fill-opacity="1"><g transform="translate(598.365029, 471.836475)"><g><path d="M 124.890625 -55.734375 C 125.078125 -54.992188 125.007812 -54.296875 124.6875 -53.640625 C 124.363281 -52.992188 123.875 -52.53125 123.21875 -52.25 C 118.9375 -50.945312 113.835938 -49.382812 107.921875 -47.5625 C 102.003906 -45.75 95.507812 -43.769531 88.4375 -41.625 C 87.5 -36.507812 86.539062 -31.4375 85.5625 -26.40625 C 84.582031 -21.375 83.675781 -16.484375 82.84375 -11.734375 C 80.601562 -0.0859375 78.644531 10.109375 76.96875 18.859375 C 75.300781 27.609375 74.046875 33.941406 73.203125 37.859375 C 72.921875 39.253906 72.035156 39.953125 70.546875 39.953125 C 70.359375 39.953125 70.171875 39.953125 69.984375 39.953125 C 69.335938 39.765625 68.800781 39.367188 68.375 38.765625 C 67.957031 38.160156 67.84375 37.484375 68.03125 36.734375 C 68.5 34.128906 69.222656 30.378906 70.203125 25.484375 C 71.179688 20.597656 72.296875 14.875 73.546875 8.3125 C 74.804688 1.75 76.132812 -5.257812 77.53125 -12.71875 C 78.375 -17 79.210938 -21.421875 80.046875 -25.984375 C 80.890625 -30.546875 81.773438 -35.203125 82.703125 -39.953125 C 82.609375 -39.859375 82.535156 -39.8125 82.484375 -39.8125 C 82.441406 -39.8125 82.375 -39.8125 82.28125 -39.8125 C 73.4375 -37.113281 64.007812 -34.25 54 -31.21875 C 43.988281 -28.195312 34.09375 -25.148438 24.3125 -22.078125 C 20.957031 -6.054688 18.160156 7.679688 15.921875 19.140625 C 13.691406 30.597656 11.851562 40.164062 10.40625 47.84375 C 8.96875 55.53125 7.851562 61.703125 7.0625 66.359375 C 6.269531 71.015625 5.6875 74.550781 5.3125 76.96875 C 6.894531 77.625 7.40625 78.742188 6.84375 80.328125 C 6.375 81.816406 5.835938 83.144531 5.234375 84.3125 C 4.628906 85.476562 3.769531 86.0625 2.65625 86.0625 C 2.375 86.0625 2.046875 86.015625 1.671875 85.921875 C 0.273438 85.546875 -0.441406 84.566406 -0.484375 82.984375 C -0.535156 81.398438 -0.328125 79.070312 0.140625 76 C 0.703125 71.71875 1.679688 65.617188 3.078125 57.703125 C 5.585938 44.003906 9.3125 24.910156 14.25 0.421875 C 14.90625 -2.929688 15.582031 -6.351562 16.28125 -9.84375 C 16.976562 -13.34375 17.695312 -16.8125 18.4375 -20.25 C 14.625 -19.039062 10.898438 -17.851562 7.265625 -16.6875 C 3.628906 -15.53125 0.0859375 -14.34375 -3.359375 -13.125 C -14.066406 -9.59375 -22.585938 -6.640625 -28.921875 -4.265625 C -35.253906 -1.890625 -40.003906 0.015625 -43.171875 1.453125 C -46.335938 2.898438 -48.523438 4.046875 -49.734375 4.890625 C -48.804688 5.546875 -48.429688 6.429688 -48.609375 7.546875 C -48.890625 9.035156 -49.773438 9.78125 -51.265625 9.78125 C -51.453125 9.78125 -51.640625 9.734375 -51.828125 9.640625 C -53.691406 9.265625 -54.925781 8.679688 -55.53125 7.890625 C -56.132812 7.097656 -56.484375 6.332031 -56.578125 5.59375 C -56.578125 4.65625 -56.226562 3.71875 -55.53125 2.78125 C -54.832031 1.851562 -53.410156 0.765625 -51.265625 -0.484375 C -49.128906 -1.742188 -45.960938 -3.257812 -41.765625 -5.03125 C -33.941406 -8.289062 -22.722656 -12.390625 -8.109375 -17.328125 C -3.722656 -18.722656 0.769531 -20.164062 5.375 -21.65625 C 9.988281 -23.144531 14.71875 -24.679688 19.5625 -26.265625 C 21.332031 -34.828125 23.050781 -43.160156 24.71875 -51.265625 C 26.394531 -59.367188 27.976562 -66.9375 29.46875 -73.96875 C 30.96875 -81 32.273438 -87.191406 33.390625 -92.546875 C 34.503906 -97.910156 35.390625 -102.128906 36.046875 -105.203125 L 36.734375 -107.984375 C 37.578125 -111.992188 37.972656 -114.953125 37.921875 -116.859375 C 37.878906 -118.765625 37.71875 -120.019531 37.4375 -120.625 C 37.15625 -121.238281 37.015625 -121.546875 37.015625 -121.546875 C 36.828125 -121.640625 36.195312 -121.519531 35.125 -121.1875 C 34.0625 -120.863281 32.410156 -119.722656 30.171875 -117.765625 C 26.910156 -114.972656 23.488281 -111.203125 19.90625 -106.453125 C 16.320312 -101.703125 13.132812 -96.765625 10.34375 -91.640625 C 7.363281 -86.054688 5.289062 -81.050781 4.125 -76.625 C 2.957031 -72.195312 2.835938 -68.820312 3.765625 -66.5 C 3.953125 -66.03125 4.535156 -65.304688 5.515625 -64.328125 C 6.492188 -63.347656 8.566406 -62.953125 11.734375 -63.140625 C 12.484375 -63.234375 13.132812 -63.023438 13.6875 -62.515625 C 14.25 -62.003906 14.578125 -61.375 14.671875 -60.625 C 14.671875 -59.882812 14.4375 -59.234375 13.96875 -58.671875 C 13.5 -58.117188 12.894531 -57.84375 12.15625 -57.84375 C 7.875 -57.5625 4.753906 -58.1875 2.796875 -59.71875 C 0.835938 -61.257812 -0.507812 -62.867188 -1.25 -64.546875 C -2.375 -67.335938 -2.5625 -70.734375 -1.8125 -74.734375 C -1.070312 -78.742188 0.296875 -83.003906 2.296875 -87.515625 C 4.304688 -92.035156 6.707031 -96.484375 9.5 -100.859375 C 12.289062 -105.242188 15.195312 -109.273438 18.21875 -112.953125 C 21.25 -116.628906 24.023438 -119.585938 26.546875 -121.828125 C 32.128906 -126.660156 36.503906 -128.101562 39.671875 -126.15625 C 43.492188 -123.914062 44.238281 -117.535156 41.90625 -107.015625 L 41.359375 -104.078125 C 38.191406 -89.171875 35.300781 -75.40625 32.6875 -62.78125 C 30.082031 -50.164062 27.660156 -38.597656 25.421875 -28.078125 C 34.828125 -30.960938 44.28125 -33.847656 53.78125 -36.734375 C 63.28125 -39.628906 72.269531 -42.378906 80.75 -44.984375 C 81.21875 -45.078125 81.707031 -45.21875 82.21875 -45.40625 C 82.726562 -45.59375 83.265625 -45.734375 83.828125 -45.828125 C 85.585938 -55.328125 87.375 -64.753906 89.1875 -74.109375 C 91.007812 -83.472656 92.757812 -92.34375 94.4375 -100.71875 C 96.113281 -109.101562 97.671875 -116.554688 99.109375 -123.078125 C 100.554688 -129.597656 101.75 -134.765625 102.6875 -138.578125 C 102.875 -139.328125 103.289062 -139.890625 103.9375 -140.265625 C 104.59375 -140.640625 105.242188 -140.734375 105.890625 -140.546875 C 106.640625 -140.359375 107.195312 -139.9375 107.5625 -139.28125 C 107.9375 -138.632812 108.03125 -137.984375 107.84375 -137.328125 C 106.914062 -133.597656 105.773438 -128.585938 104.421875 -122.296875 C 103.078125 -116.015625 101.585938 -108.847656 99.953125 -100.796875 C 98.328125 -92.742188 96.628906 -84.175781 94.859375 -75.09375 C 93.085938 -66.007812 91.316406 -56.859375 89.546875 -47.640625 C 96.066406 -49.597656 102.050781 -51.390625 107.5 -53.015625 C 112.945312 -54.648438 117.628906 -56.117188 121.546875 -57.421875 C 122.191406 -57.609375 122.863281 -57.535156 123.5625 -57.203125 C 124.257812 -56.878906 124.703125 -56.390625 124.890625 -55.734375 Z M 124.890625 -55.734375 "/></g></g></g><g fill="#000000" fill-opacity="1"><g transform="translate(723.246817, 471.836475)"><g><path d="M 149.625 -134.8125 C 150.363281 -134.8125 150.988281 -134.554688 151.5 -134.046875 C 152.019531 -133.535156 152.28125 -132.90625 152.28125 -132.15625 C 152.28125 -131.414062 152.019531 -130.785156 151.5 -130.265625 C 150.988281 -129.753906 150.363281 -129.5 149.625 -129.5 C 142.445312 -129.40625 134.25 -128.820312 125.03125 -127.75 C 115.8125 -126.6875 106.285156 -125.289062 96.453125 -123.5625 C 86.628906 -121.84375 77.15625 -119.816406 68.03125 -117.484375 C 66.632812 -111.617188 65.023438 -105.171875 63.203125 -98.140625 C 61.390625 -91.109375 59.460938 -83.773438 57.421875 -76.140625 C 56.023438 -70.546875 54.535156 -64.742188 52.953125 -58.734375 C 51.367188 -52.734375 49.832031 -46.707031 48.34375 -40.65625 C 54.769531 -42.332031 61.238281 -43.9375 67.75 -45.46875 C 74.269531 -47.007812 80.394531 -48.359375 86.125 -49.515625 C 91.851562 -50.679688 96.789062 -51.566406 100.9375 -52.171875 C 105.082031 -52.785156 107.992188 -53.046875 109.671875 -52.953125 C 110.410156 -52.859375 111.015625 -52.550781 111.484375 -52.03125 C 111.953125 -51.519531 112.1875 -50.894531 112.1875 -50.15625 C 112.09375 -49.40625 111.785156 -48.773438 111.265625 -48.265625 C 110.753906 -47.753906 110.128906 -47.5 109.390625 -47.5 C 107.523438 -47.6875 103.984375 -47.335938 98.765625 -46.453125 C 93.554688 -45.566406 87.316406 -44.351562 80.046875 -42.8125 C 72.785156 -41.28125 65.101562 -39.488281 57 -37.4375 C 53.457031 -36.507812 50.054688 -35.625 46.796875 -34.78125 C 44.378906 -24.914062 42.144531 -15.347656 40.09375 -6.078125 C 38.039062 3.191406 36.363281 11.757812 35.0625 19.625 C 33.757812 27.5 33.0625 34.132812 32.96875 39.53125 C 32.96875 41.769531 33.175781 44.03125 33.59375 46.3125 C 34.019531 48.59375 34.976562 50.0625 36.46875 50.71875 C 38.226562 51.457031 40.578125 51.175781 43.515625 49.875 C 46.453125 48.570312 49.734375 46.566406 53.359375 43.859375 C 56.992188 41.160156 60.71875 38.132812 64.53125 34.78125 C 68.351562 31.425781 72.054688 28.023438 75.640625 24.578125 C 79.234375 21.140625 82.425781 18.070312 85.21875 15.375 C 85.96875 14.625 86.710938 13.898438 87.453125 13.203125 C 88.203125 12.503906 88.898438 11.78125 89.546875 11.03125 L 91.921875 8.796875 C 93.316406 7.492188 94.664062 6.210938 95.96875 4.953125 C 97.28125 3.703125 98.445312 2.609375 99.46875 1.671875 C 100.863281 0.367188 102.164062 -0.675781 103.375 -1.46875 C 104.59375 -2.257812 105.710938 -2.144531 106.734375 -1.125 C 107.941406 -0.09375 108.078125 1.257812 107.140625 2.9375 C 106.210938 4.613281 104.398438 7.265625 101.703125 10.890625 C 101.234375 11.546875 100.625 11.921875 99.875 12.015625 C 99.132812 12.109375 98.488281 11.921875 97.9375 11.453125 C 97.75 11.359375 97.5625 11.21875 97.375 11.03125 C 97.09375 11.3125 96.8125 11.59375 96.53125 11.875 C 96.25 12.15625 95.972656 12.4375 95.703125 12.71875 L 93.328125 14.953125 C 92.671875 15.597656 91.96875 16.289062 91.21875 17.03125 C 90.476562 17.78125 89.734375 18.484375 88.984375 19.140625 C 82.003906 25.941406 75.394531 32.15625 69.15625 37.78125 C 62.914062 43.414062 57.160156 47.929688 51.890625 51.328125 C 46.628906 54.734375 42.09375 56.4375 38.28125 56.4375 C 36.789062 56.4375 35.484375 56.160156 34.359375 55.609375 C 29.703125 53.648438 27.46875 48.289062 27.65625 39.53125 C 27.75 34.039062 28.398438 27.5 29.609375 19.90625 C 30.828125 12.3125 32.410156 4 34.359375 -5.03125 C 36.316406 -14.0625 38.460938 -23.421875 40.796875 -33.109375 C 31.203125 -30.410156 23.75 -28.054688 18.4375 -26.046875 C 13.132812 -24.046875 9.96875 -22.582031 8.9375 -21.65625 C 8.476562 -21.1875 7.875 -20.953125 7.125 -20.953125 C 6.375 -20.953125 5.722656 -21.234375 5.171875 -21.796875 C 4.703125 -22.265625 4.46875 -22.867188 4.46875 -23.609375 C 4.46875 -24.359375 4.75 -25.007812 5.3125 -25.5625 C 6.425781 -26.675781 8.773438 -27.976562 12.359375 -29.46875 C 15.953125 -30.96875 20.351562 -32.53125 25.5625 -34.15625 C 30.78125 -35.789062 36.367188 -37.441406 42.328125 -39.109375 C 43.910156 -45.535156 45.5625 -51.984375 47.28125 -58.453125 C 49.007812 -64.929688 50.664062 -71.289062 52.25 -77.53125 C 54.113281 -84.519531 55.882812 -91.273438 57.5625 -97.796875 C 59.238281 -104.316406 60.773438 -110.367188 62.171875 -115.953125 C 53.972656 -113.710938 46.492188 -111.359375 39.734375 -108.890625 C 32.984375 -106.429688 27.46875 -103.894531 23.1875 -101.28125 C 18.90625 -98.675781 16.390625 -96.070312 15.640625 -93.46875 C 15.460938 -93.09375 15.460938 -92.25 15.640625 -90.9375 C 15.828125 -89.632812 17.363281 -88.007812 20.25 -86.0625 C 20.8125 -85.59375 21.160156 -85.007812 21.296875 -84.3125 C 21.441406 -83.613281 21.328125 -82.9375 20.953125 -82.28125 C 20.398438 -81.539062 19.65625 -81.171875 18.71875 -81.171875 C 18.15625 -81.171875 17.644531 -81.3125 17.1875 -81.59375 C 13.457031 -84.101562 11.289062 -86.546875 10.6875 -88.921875 C 10.082031 -91.296875 10.015625 -93.320312 10.484375 -95 C 11.410156 -97.976562 13.570312 -100.769531 16.96875 -103.375 C 20.375 -105.988281 24.613281 -108.410156 29.6875 -110.640625 C 34.757812 -112.878906 40.226562 -114.953125 46.09375 -116.859375 C 51.96875 -118.765625 57.789062 -120.460938 63.5625 -121.953125 C 64.125 -124.285156 64.59375 -126.289062 64.96875 -127.96875 C 65.0625 -128.707031 65.429688 -129.265625 66.078125 -129.640625 C 66.734375 -130.015625 67.382812 -130.15625 68.03125 -130.0625 C 68.78125 -129.875 69.363281 -129.476562 69.78125 -128.875 C 70.195312 -128.269531 70.3125 -127.59375 70.125 -126.84375 C 69.9375 -125.914062 69.707031 -124.753906 69.4375 -123.359375 C 78.46875 -125.585938 87.847656 -127.539062 97.578125 -129.21875 C 107.316406 -130.894531 116.675781 -132.222656 125.65625 -133.203125 C 134.644531 -134.179688 142.632812 -134.71875 149.625 -134.8125 Z M 149.625 -134.8125 "/></g></g></g><g fill="#000000" fill-opacity="1"><g transform="translate(847.709585, 471.836475)"><g><path d="M 140.953125 33.8125 C 141.515625 34.269531 141.816406 34.867188 141.859375 35.609375 C 141.910156 36.359375 141.703125 37.0625 141.234375 37.71875 C 136.296875 43.769531 131.082031 46.796875 125.59375 46.796875 C 125.40625 46.796875 125.21875 46.796875 125.03125 46.796875 C 121.03125 46.703125 117.117188 45.117188 113.296875 42.046875 C 109.484375 38.972656 105.640625 34.96875 101.765625 30.03125 C 97.898438 25.09375 93.921875 19.691406 89.828125 13.828125 C 85.546875 7.867188 81.03125 1.796875 76.28125 -4.390625 C 71.53125 -10.585938 66.5 -16.015625 61.1875 -20.671875 C 55.507812 -19.273438 49.921875 -18.625 44.421875 -18.71875 C 42.285156 -9.96875 40.164062 -1.191406 38.0625 7.609375 C 35.96875 16.410156 34.015625 24.789062 32.203125 32.75 C 30.390625 40.71875 28.828125 47.890625 27.515625 54.265625 C 26.210938 60.648438 25.285156 65.84375 24.734375 69.84375 C 25.003906 69.195312 25.328125 68.453125 25.703125 67.609375 C 25.984375 66.960938 26.472656 66.5 27.171875 66.21875 C 27.867188 65.9375 28.546875 65.9375 29.203125 66.21875 C 29.941406 66.59375 30.425781 67.128906 30.65625 67.828125 C 30.894531 68.523438 30.875 69.195312 30.59375 69.84375 C 28.820312 73.757812 27.332031 76.671875 26.125 78.578125 C 24.914062 80.492188 23.660156 81.453125 22.359375 81.453125 C 21.984375 81.453125 21.609375 81.359375 21.234375 81.171875 C 20.492188 80.890625 19.910156 80.351562 19.484375 79.5625 C 19.066406 78.769531 18.878906 77.28125 18.921875 75.09375 C 18.972656 72.90625 19.347656 69.644531 20.046875 65.3125 C 20.742188 60.976562 21.859375 55.175781 23.390625 47.90625 C 24.929688 40.644531 26.957031 31.539062 29.46875 20.59375 C 31.988281 9.65625 35.160156 -3.585938 38.984375 -19.140625 C 33.859375 -19.703125 29.96875 -20.984375 27.3125 -22.984375 C 24.65625 -24.984375 23.003906 -27.054688 22.359375 -29.203125 C 21.234375 -32.460938 22.066406 -35.160156 24.859375 -37.296875 C 26.816406 -38.878906 29.398438 -39.671875 32.609375 -39.671875 C 35.828125 -39.671875 39.441406 -38.972656 43.453125 -37.578125 C 44.003906 -39.910156 44.582031 -42.265625 45.1875 -44.640625 C 45.800781 -47.015625 46.382812 -49.457031 46.9375 -51.96875 C 49.082031 -60.351562 51.109375 -68.457031 53.015625 -76.28125 C 54.921875 -84.101562 56.664062 -91.34375 58.25 -98 C 59.832031 -104.65625 61.140625 -110.359375 62.171875 -115.109375 C 62.359375 -115.859375 62.753906 -116.441406 63.359375 -116.859375 C 63.960938 -117.273438 64.632812 -117.390625 65.375 -117.203125 C 66.125 -117.023438 66.679688 -116.628906 67.046875 -116.015625 C 67.421875 -115.410156 67.566406 -114.738281 67.484375 -114 C 66.359375 -109.25 65.003906 -103.539062 63.421875 -96.875 C 61.835938 -90.21875 60.09375 -82.953125 58.1875 -75.078125 C 56.28125 -67.210938 54.300781 -59.09375 52.25 -50.71875 C 51.59375 -48.289062 50.960938 -45.796875 50.359375 -43.234375 C 49.753906 -40.671875 49.128906 -38.039062 48.484375 -35.34375 C 50.804688 -34.226562 53.179688 -32.972656 55.609375 -31.578125 C 57.835938 -30.179688 60.117188 -28.550781 62.453125 -26.6875 C 68.691406 -28.457031 75.09375 -31.226562 81.65625 -35 C 88.21875 -38.769531 94.640625 -43.726562 100.921875 -49.875 C 107.210938 -56.019531 113.015625 -63.609375 118.328125 -72.640625 C 122.328125 -79.347656 125.304688 -85.914062 127.265625 -92.34375 C 129.222656 -98.769531 130.109375 -104.707031 129.921875 -110.15625 C 129.734375 -115.601562 128.476562 -120.238281 126.15625 -124.0625 C 120.84375 -132.4375 110.738281 -136.113281 95.84375 -135.09375 C 88.289062 -134.53125 80.578125 -132.96875 72.703125 -130.40625 C 64.835938 -127.851562 57.269531 -124.503906 50 -120.359375 C 42.738281 -116.210938 36.242188 -111.597656 30.515625 -106.515625 C 24.796875 -101.441406 20.398438 -96.160156 17.328125 -90.671875 C 11.359375 -80.234375 10.75 -70.3125 15.5 -60.90625 C 15.78125 -60.257812 15.804688 -59.585938 15.578125 -58.890625 C 15.347656 -58.191406 14.90625 -57.65625 14.25 -57.28125 C 13.59375 -57 12.914062 -56.972656 12.21875 -57.203125 C 11.519531 -57.441406 10.988281 -57.882812 10.625 -58.53125 C 5.03125 -69.707031 5.679688 -81.304688 12.578125 -93.328125 C 15.929688 -99.285156 20.609375 -104.960938 26.609375 -110.359375 C 32.617188 -115.765625 39.414062 -120.628906 47 -124.953125 C 54.59375 -129.285156 62.554688 -132.800781 70.890625 -135.5 C 79.234375 -138.207031 87.457031 -139.890625 95.5625 -140.546875 C 102.539062 -141.003906 108.378906 -140.554688 113.078125 -139.203125 C 117.785156 -137.859375 121.535156 -136.046875 124.328125 -133.765625 C 127.128906 -131.484375 129.226562 -129.175781 130.625 -126.84375 C 133.414062 -122.46875 134.953125 -117.226562 135.234375 -111.125 C 135.515625 -105.03125 134.628906 -98.46875 132.578125 -91.4375 C 130.523438 -84.40625 127.3125 -77.207031 122.9375 -69.84375 C 118.75 -62.675781 113.742188 -55.945312 107.921875 -49.65625 C 102.097656 -43.375 95.878906 -38 89.265625 -33.53125 C 82.191406 -28.59375 74.882812 -24.867188 67.34375 -22.359375 C 72.363281 -17.609375 77.085938 -12.320312 81.515625 -6.5 C 85.941406 -0.675781 90.15625 5.070312 94.15625 10.75 C 97.882812 15.96875 101.515625 20.90625 105.046875 25.5625 C 108.585938 30.21875 112.035156 34.015625 115.390625 36.953125 C 118.742188 39.890625 122.003906 41.398438 125.171875 41.484375 C 129.085938 41.578125 133.09375 39.160156 137.1875 34.234375 C 137.65625 33.671875 138.238281 33.34375 138.9375 33.25 C 139.632812 33.15625 140.304688 33.34375 140.953125 33.8125 Z M 27.375 -30.734375 C 27.84375 -29.429688 29.144531 -28.148438 31.28125 -26.890625 C 33.425781 -25.628906 36.410156 -24.769531 40.234375 -24.3125 C 40.890625 -26.820312 41.539062 -29.425781 42.1875 -32.125 C 40.507812 -32.78125 38.851562 -33.316406 37.21875 -33.734375 C 35.59375 -34.148438 34.082031 -34.359375 32.6875 -34.359375 C 30.726562 -34.359375 29.191406 -33.941406 28.078125 -33.109375 C 27.335938 -32.453125 27.101562 -31.660156 27.375 -30.734375 Z M 45.6875 -24.171875 C 48.945312 -24.171875 52.253906 -24.492188 55.609375 -25.140625 C 54.671875 -25.796875 53.738281 -26.40625 52.8125 -26.96875 C 51.96875 -27.425781 51.078125 -27.910156 50.140625 -28.421875 C 49.210938 -28.941406 48.191406 -29.476562 47.078125 -30.03125 C 46.890625 -29.007812 46.679688 -28.007812 46.453125 -27.03125 C 46.222656 -26.050781 45.96875 -25.097656 45.6875 -24.171875 Z M 45.6875 -24.171875 "/></g></g></g><g fill="#000000" fill-opacity="1"><g transform="translate(982.369523, 471.836475)"><g><path d="M 174.90625 -120.5625 C 175.1875 -116 174.953125 -109.96875 174.203125 -102.46875 C 173.460938 -94.96875 172.367188 -86.46875 170.921875 -76.96875 C 169.484375 -67.476562 167.804688 -57.445312 165.890625 -46.875 C 163.984375 -36.300781 162.050781 -25.660156 160.09375 -14.953125 C 158.789062 -7.492188 157.441406 0.117188 156.046875 7.890625 C 154.648438 15.671875 153.367188 23.125 152.203125 30.25 C 151.035156 37.375 150.125 43.660156 149.46875 49.109375 C 148.820312 54.554688 148.546875 58.628906 148.640625 61.328125 C 149.015625 60.679688 149.4375 59.984375 149.90625 59.234375 C 150.269531 58.578125 150.800781 58.15625 151.5 57.96875 C 152.207031 57.789062 152.882812 57.882812 153.53125 58.25 C 154.1875 58.625 154.609375 59.160156 154.796875 59.859375 C 154.984375 60.554688 154.890625 61.234375 154.515625 61.890625 C 153.390625 63.753906 152.175781 65.453125 150.875 66.984375 C 149.570312 68.523438 148.035156 69.015625 146.265625 68.453125 C 145.242188 67.984375 144.476562 66.976562 143.96875 65.4375 C 143.457031 63.90625 143.269531 61.394531 143.40625 57.90625 C 143.539062 54.414062 144.023438 49.570312 144.859375 43.375 C 145.703125 37.1875 146.9375 29.25 148.5625 19.5625 C 150.195312 9.875 152.320312 -1.90625 154.9375 -15.78125 C 156.695312 -26.03125 158.507812 -36.367188 160.375 -46.796875 C 162.238281 -57.234375 163.914062 -67.203125 165.40625 -76.703125 C 166.894531 -86.203125 168.035156 -94.722656 168.828125 -102.265625 C 169.617188 -109.804688 169.875 -115.765625 169.59375 -120.140625 C 169.40625 -122.847656 169.03125 -124.828125 168.46875 -126.078125 C 167.914062 -127.335938 167.363281 -128.015625 166.8125 -128.109375 C 166.8125 -128.109375 166.765625 -128.109375 166.671875 -128.109375 C 165.734375 -128.109375 164.097656 -127.101562 161.765625 -125.09375 C 159.441406 -123.09375 156.535156 -119.53125 153.046875 -114.40625 C 149.554688 -109.289062 145.4375 -102.03125 140.6875 -92.625 C 135.84375 -82.9375 129.832031 -69.128906 122.65625 -51.203125 C 115.488281 -33.273438 107.851562 -10.25 99.75 17.875 C 99.28125 19.550781 98.207031 20.207031 96.53125 19.84375 C 94.851562 19.46875 94.15625 18.441406 94.4375 16.765625 C 100.957031 -21.609375 104.453125 -50.4375 104.921875 -69.71875 C 105.109375 -75.675781 105.015625 -80.351562 104.640625 -83.75 C 104.265625 -87.144531 103.796875 -89.613281 103.234375 -91.15625 C 102.679688 -92.695312 102.191406 -93.675781 101.765625 -94.09375 C 101.347656 -94.507812 101.09375 -94.765625 101 -94.859375 C 100.90625 -94.859375 100.460938 -94.71875 99.671875 -94.4375 C 98.878906 -94.15625 97.644531 -93.222656 95.96875 -91.640625 C 94.300781 -90.054688 92.140625 -87.304688 89.484375 -83.390625 C 86.828125 -79.484375 83.632812 -73.941406 79.90625 -66.765625 C 76.1875 -59.597656 71.8125 -50.289062 66.78125 -38.84375 C 61.65625 -27.007812 56.507812 -14.222656 51.34375 -0.484375 C 46.175781 13.253906 41.21875 27.335938 36.46875 41.765625 C 31.71875 56.203125 27.382812 70.359375 23.46875 84.234375 C 23.46875 84.234375 23.46875 84.28125 23.46875 84.375 C 22.820312 86.050781 22.144531 87.539062 21.4375 88.84375 C 20.738281 90.15625 19.832031 90.8125 18.71875 90.8125 C 18.4375 90.8125 18.113281 90.765625 17.75 90.671875 C 16.4375 90.203125 15.753906 89.195312 15.703125 87.65625 C 15.660156 86.125 15.875 83.726562 16.34375 80.46875 C 17 76.09375 18.117188 69.804688 19.703125 61.609375 C 22.492188 47.546875 26.585938 28.265625 31.984375 3.765625 C 34.410156 -7.492188 36.859375 -18.597656 39.328125 -29.546875 C 41.796875 -40.492188 44.097656 -50.644531 46.234375 -60 C 48.378906 -69.363281 50.242188 -77.394531 51.828125 -84.09375 C 53.410156 -90.800781 54.53125 -95.507812 55.1875 -98.21875 C 56.675781 -104.632812 57.441406 -109.492188 57.484375 -112.796875 C 57.535156 -116.109375 57.253906 -118.414062 56.640625 -119.71875 C 56.035156 -121.03125 55.550781 -121.820312 55.1875 -122.09375 C 54.15625 -122.75 52.59375 -122.65625 50.5 -121.8125 C 48.40625 -120.976562 46.007812 -119.535156 43.3125 -117.484375 C 39.675781 -114.691406 35.945312 -111.0625 32.125 -106.59375 C 28.3125 -102.125 24.703125 -97.234375 21.296875 -91.921875 C 17.898438 -86.617188 15.015625 -81.238281 12.640625 -75.78125 C 10.265625 -70.332031 8.632812 -65.09375 7.75 -60.0625 C 6.863281 -55.039062 7.070312 -50.617188 8.375 -46.796875 C 11.082031 -38.785156 18.816406 -34.6875 31.578125 -34.5 C 32.316406 -34.5 32.941406 -34.21875 33.453125 -33.65625 C 33.972656 -33.101562 34.234375 -32.457031 34.234375 -31.71875 C 34.234375 -30.96875 33.953125 -30.335938 33.390625 -29.828125 C 32.828125 -29.316406 32.222656 -29.0625 31.578125 -29.0625 C 31.578125 -29.0625 31.550781 -29.0625 31.5 -29.0625 C 31.457031 -29.0625 31.4375 -29.0625 31.4375 -29.0625 C 27.988281 -29.15625 24.351562 -29.644531 20.53125 -30.53125 C 16.71875 -31.414062 13.25 -33 10.125 -35.28125 C 7.007812 -37.5625 4.707031 -40.84375 3.21875 -45.125 C 2.09375 -48.570312 1.644531 -52.203125 1.875 -56.015625 C 2.113281 -59.835938 2.789062 -63.632812 3.90625 -67.40625 C 5.03125 -71.175781 6.3125 -74.710938 7.75 -78.015625 C 9.195312 -81.328125 10.570312 -84.191406 11.875 -86.609375 C 15.695312 -93.597656 20.117188 -100.257812 25.140625 -106.59375 C 30.171875 -112.925781 35.15625 -118.003906 40.09375 -121.828125 C 44.84375 -125.453125 48.660156 -127.378906 51.546875 -127.609375 C 54.429688 -127.847656 56.617188 -127.503906 58.109375 -126.578125 C 63.515625 -123.128906 64.265625 -113.253906 60.359375 -96.953125 C 59.328125 -92.671875 57.992188 -87.015625 56.359375 -79.984375 C 54.734375 -72.953125 52.921875 -65.007812 50.921875 -56.15625 C 48.921875 -47.3125 46.800781 -37.972656 44.5625 -28.140625 C 42.332031 -18.316406 40.117188 -8.445312 37.921875 1.46875 C 35.734375 11.382812 33.640625 20.972656 31.640625 30.234375 C 29.640625 39.503906 27.894531 47.960938 26.40625 55.609375 C 29.945312 44.335938 33.671875 33.066406 37.578125 21.796875 C 41.492188 10.523438 45.5 -0.414062 49.59375 -11.03125 C 53.6875 -21.65625 57.785156 -31.671875 61.890625 -41.078125 C 67.285156 -53.460938 72.03125 -63.492188 76.125 -71.171875 C 80.226562 -78.859375 83.769531 -84.75 86.75 -88.84375 C 89.726562 -92.945312 92.242188 -95.789062 94.296875 -97.375 C 96.347656 -98.957031 98 -99.84375 99.25 -100.03125 C 100.507812 -100.21875 101.515625 -100.21875 102.265625 -100.03125 C 103.566406 -99.75 104.820312 -98.910156 106.03125 -97.515625 C 107.238281 -96.117188 108.238281 -93.765625 109.03125 -90.453125 C 109.820312 -87.148438 110.285156 -82.492188 110.421875 -76.484375 C 110.566406 -70.484375 110.242188 -62.773438 109.453125 -53.359375 C 108.660156 -43.953125 107.332031 -32.40625 105.46875 -18.71875 C 111.15625 -35.945312 116.90625 -51.660156 122.71875 -65.859375 C 128.539062 -80.066406 134.203125 -92.269531 139.703125 -102.46875 C 145.203125 -112.664062 150.320312 -120.460938 155.0625 -125.859375 C 159.8125 -131.265625 163.957031 -133.785156 167.5 -133.421875 C 171.875 -132.953125 174.34375 -128.664062 174.90625 -120.5625 Z M 174.90625 -120.5625 "/></g></g></g><g fill="#000000" fill-opacity="1"><g transform="translate(1165.361154, 471.836475)"><g><path d="M 149.625 -134.8125 C 150.363281 -134.8125 150.988281 -134.554688 151.5 -134.046875 C 152.019531 -133.535156 152.28125 -132.90625 152.28125 -132.15625 C 152.28125 -131.414062 152.019531 -130.785156 151.5 -130.265625 C 150.988281 -129.753906 150.363281 -129.5 149.625 -129.5 C 142.445312 -129.40625 134.25 -128.820312 125.03125 -127.75 C 115.8125 -126.6875 106.285156 -125.289062 96.453125 -123.5625 C 86.628906 -121.84375 77.15625 -119.816406 68.03125 -117.484375 C 66.632812 -111.617188 65.023438 -105.171875 63.203125 -98.140625 C 61.390625 -91.109375 59.460938 -83.773438 57.421875 -76.140625 C 56.023438 -70.546875 54.535156 -64.742188 52.953125 -58.734375 C 51.367188 -52.734375 49.832031 -46.707031 48.34375 -40.65625 C 54.769531 -42.332031 61.238281 -43.9375 67.75 -45.46875 C 74.269531 -47.007812 80.394531 -48.359375 86.125 -49.515625 C 91.851562 -50.679688 96.789062 -51.566406 100.9375 -52.171875 C 105.082031 -52.785156 107.992188 -53.046875 109.671875 -52.953125 C 110.410156 -52.859375 111.015625 -52.550781 111.484375 -52.03125 C 111.953125 -51.519531 112.1875 -50.894531 112.1875 -50.15625 C 112.09375 -49.40625 111.785156 -48.773438 111.265625 -48.265625 C 110.753906 -47.753906 110.128906 -47.5 109.390625 -47.5 C 107.523438 -47.6875 103.984375 -47.335938 98.765625 -46.453125 C 93.554688 -45.566406 87.316406 -44.351562 80.046875 -42.8125 C 72.785156 -41.28125 65.101562 -39.488281 57 -37.4375 C 53.457031 -36.507812 50.054688 -35.625 46.796875 -34.78125 C 44.378906 -24.914062 42.144531 -15.347656 40.09375 -6.078125 C 38.039062 3.191406 36.363281 11.757812 35.0625 19.625 C 33.757812 27.5 33.0625 34.132812 32.96875 39.53125 C 32.96875 41.769531 33.175781 44.03125 33.59375 46.3125 C 34.019531 48.59375 34.976562 50.0625 36.46875 50.71875 C 38.226562 51.457031 40.578125 51.175781 43.515625 49.875 C 46.453125 48.570312 49.734375 46.566406 53.359375 43.859375 C 56.992188 41.160156 60.71875 38.132812 64.53125 34.78125 C 68.351562 31.425781 72.054688 28.023438 75.640625 24.578125 C 79.234375 21.140625 82.425781 18.070312 85.21875 15.375 C 85.96875 14.625 86.710938 13.898438 87.453125 13.203125 C 88.203125 12.503906 88.898438 11.78125 89.546875 11.03125 L 91.921875 8.796875 C 93.316406 7.492188 94.664062 6.210938 95.96875 4.953125 C 97.28125 3.703125 98.445312 2.609375 99.46875 1.671875 C 100.863281 0.367188 102.164062 -0.675781 103.375 -1.46875 C 104.59375 -2.257812 105.710938 -2.144531 106.734375 -1.125 C 107.941406 -0.09375 108.078125 1.257812 107.140625 2.9375 C 106.210938 4.613281 104.398438 7.265625 101.703125 10.890625 C 101.234375 11.546875 100.625 11.921875 99.875 12.015625 C 99.132812 12.109375 98.488281 11.921875 97.9375 11.453125 C 97.75 11.359375 97.5625 11.21875 97.375 11.03125 C 97.09375 11.3125 96.8125 11.59375 96.53125 11.875 C 96.25 12.15625 95.972656 12.4375 95.703125 12.71875 L 93.328125 14.953125 C 92.671875 15.597656 91.96875 16.289062 91.21875 17.03125 C 90.476562 17.78125 89.734375 18.484375 88.984375 19.140625 C 82.003906 25.941406 75.394531 32.15625 69.15625 37.78125 C 62.914062 43.414062 57.160156 47.929688 51.890625 51.328125 C 46.628906 54.734375 42.09375 56.4375 38.28125 56.4375 C 36.789062 56.4375 35.484375 56.160156 34.359375 55.609375 C 29.703125 53.648438 27.46875 48.289062 27.65625 39.53125 C 27.75 34.039062 28.398438 27.5 29.609375 19.90625 C 30.828125 12.3125 32.410156 4 34.359375 -5.03125 C 36.316406 -14.0625 38.460938 -23.421875 40.796875 -33.109375 C 31.203125 -30.410156 23.75 -28.054688 18.4375 -26.046875 C 13.132812 -24.046875 9.96875 -22.582031 8.9375 -21.65625 C 8.476562 -21.1875 7.875 -20.953125 7.125 -20.953125 C 6.375 -20.953125 5.722656 -21.234375 5.171875 -21.796875 C 4.703125 -22.265625 4.46875 -22.867188 4.46875 -23.609375 C 4.46875 -24.359375 4.75 -25.007812 5.3125 -25.5625 C 6.425781 -26.675781 8.773438 -27.976562 12.359375 -29.46875 C 15.953125 -30.96875 20.351562 -32.53125 25.5625 -34.15625 C 30.78125 -35.789062 36.367188 -37.441406 42.328125 -39.109375 C 43.910156 -45.535156 45.5625 -51.984375 47.28125 -58.453125 C 49.007812 -64.929688 50.664062 -71.289062 52.25 -77.53125 C 54.113281 -84.519531 55.882812 -91.273438 57.5625 -97.796875 C 59.238281 -104.316406 60.773438 -110.367188 62.171875 -115.953125 C 53.972656 -113.710938 46.492188 -111.359375 39.734375 -108.890625 C 32.984375 -106.429688 27.46875 -103.894531 23.1875 -101.28125 C 18.90625 -98.675781 16.390625 -96.070312 15.640625 -93.46875 C 15.460938 -93.09375 15.460938 -92.25 15.640625 -90.9375 C 15.828125 -89.632812 17.363281 -88.007812 20.25 -86.0625 C 20.8125 -85.59375 21.160156 -85.007812 21.296875 -84.3125 C 21.441406 -83.613281 21.328125 -82.9375 20.953125 -82.28125 C 20.398438 -81.539062 19.65625 -81.171875 18.71875 -81.171875 C 18.15625 -81.171875 17.644531 -81.3125 17.1875 -81.59375 C 13.457031 -84.101562 11.289062 -86.546875 10.6875 -88.921875 C 10.082031 -91.296875 10.015625 -93.320312 10.484375 -95 C 11.410156 -97.976562 13.570312 -100.769531 16.96875 -103.375 C 20.375 -105.988281 24.613281 -108.410156 29.6875 -110.640625 C 34.757812 -112.878906 40.226562 -114.953125 46.09375 -116.859375 C 51.96875 -118.765625 57.789062 -120.460938 63.5625 -121.953125 C 64.125 -124.285156 64.59375 -126.289062 64.96875 -127.96875 C 65.0625 -128.707031 65.429688 -129.265625 66.078125 -129.640625 C 66.734375 -130.015625 67.382812 -130.15625 68.03125 -130.0625 C 68.78125 -129.875 69.363281 -129.476562 69.78125 -128.875 C 70.195312 -128.269531 70.3125 -127.59375 70.125 -126.84375 C 69.9375 -125.914062 69.707031 -124.753906 69.4375 -123.359375 C 78.46875 -125.585938 87.847656 -127.539062 97.578125 -129.21875 C 107.316406 -130.894531 116.675781 -132.222656 125.65625 -133.203125 C 134.644531 -134.179688 142.632812 -134.71875 149.625 -134.8125 Z M 149.625 -134.8125 "/></g></g></g></svg>